<svg xmlns="http://www.w3.org/2000/svg" version="1.1" xmlns:xlink="http://www.w3.org/1999/xlink" xmlns:svgjs="http://svgjs.dev/svgjs" width="2000" height="328" viewBox="0 0 2000 328"><g transform="matrix(1,0,0,1,-1.2121155943565327,-0.784422290832083)"><svg viewBox="0 0 396 65" data-background-color="#ffffff" preserveAspectRatio="xMidYMid meet" height="328" width="2000" xmlns="http://www.w3.org/2000/svg" xmlns:xlink="http://www.w3.org/1999/xlink"><g id="tight-bounds" transform="matrix(1,0,0,1,0.23999913100203685,0.15545259789109878)"><svg viewBox="0 0 395.52 64.68909786276716" height="64.68909786276716" width="395.52"><g><svg viewBox="0 0 395.52 64.68909786276716" height="64.68909786276716" width="395.52"><g><svg viewBox="0 0 395.52 64.68909786276716" height="64.68909786276716" width="395.52"><g id="textblocktransform"><svg viewBox="0 0 395.52 64.68909786276716" height="64.68909786276716" width="395.52" id="textblock"><g><svg viewBox="0 0 395.52 64.68909786276716" height="64.68909786276716" width="395.52"><g transform="matrix(1,0,0,1,0,0)"><svg width="395.52" viewBox="5.860000133514404 -35.0099983215332 217.02999877929688 35.5" height="64.68909786276716" data-palette-color="#fce44d"><path d="M22.63-35.01L22.63-35.01Q27.49-35.01 32.23-33.57L32.23-33.57 33.23-33.28 31.23-27.61 30.3-27.88Q25.88-29.1 22.24-29.1L22.24-29.1Q18.65-29.1 16.1-27.93 13.55-26.76 13.55-24.93L13.55-24.93Q13.55-23.73 14.69-22.83 15.82-21.92 17.63-21.3 19.43-20.68 21.62-20.07 23.8-19.46 26-18.65 28.2-17.85 30-16.8 31.81-15.75 32.95-14 34.08-12.26 34.08-9.99L34.08-9.99Q34.08-8.52 33.58-7.09 33.08-5.66 31.9-4.27 30.71-2.88 28.97-1.84 27.22-0.81 24.52-0.16 21.83 0.49 18.48 0.49 15.14 0.49 12.45-0.13 9.77-0.76 6.76-1.93L6.76-1.93 5.86-2.27 7.93-8.18 8.89-7.81Q15.06-5.62 19.07-5.62L19.07-5.62Q22.83-5.62 25.16-6.76 27.49-7.91 27.49-9.79L27.49-9.79Q27.49-10.84 26.78-11.67 26.07-12.5 24.88-13.07 23.68-13.65 22.13-14.14 20.58-14.62 18.87-15.09 17.16-15.55 15.45-16.09 13.75-16.63 12.19-17.38 10.64-18.14 9.45-19.09 8.25-20.04 7.54-21.47 6.84-22.9 6.84-24.66L6.84-24.66Q6.84-29.05 11.15-32.03 15.45-35.01 22.63-35.01ZM68.65 0L44.31 0 44.31-34.69 68.65-34.69 68.65-29.03 50.49-29.03 50.49-20.7 67.31-20.7 67.31-15.04 50.49-15.04 50.49-5.66 68.65-5.66 68.65 0ZM106.51-24.76L106.51-24.76Q106.51-23.1 106.11-21.59 105.71-20.09 104.84-18.7 103.97-17.31 102.47-16.21 100.97-15.11 98.92-14.5L98.92-14.5 109.39 0 101.39 0 91.67-13.45 85.79-13.45 85.79 0 79.63 0 79.63-34.69 94.4-34.69Q95.5-34.69 96.42-34.63 97.33-34.57 98.64-34.34 99.95-34.11 100.96-33.72 101.97-33.33 103.06-32.57 104.15-31.81 104.87-30.8 105.59-29.79 106.05-28.23 106.51-26.68 106.51-24.76ZM92.6-29.05L85.79-29.05 85.79-19.12 91.45-19.12Q92.91-19.12 94.04-19.21 95.16-19.31 96.36-19.62 97.55-19.92 98.32-20.46 99.09-21 99.59-21.95 100.09-22.9 100.09-24.19L100.09-24.19Q100.09-29.05 92.6-29.05L92.6-29.05ZM143.06 0L118.72 0 118.72-34.69 143.06-34.69 143.06-29.03 124.89-29.03 124.89-20.7 141.72-20.7 141.72-15.04 124.89-15.04 124.89-5.66 143.06-5.66 143.06 0ZM154.04 0L154.04-34.69 160.83-34.69 180.19-8.03 180.19-34.69 186.34-34.69 186.34 0 179.48 0 160.2-26.71 160.2 0 154.04 0ZM222.89 0L198.55 0 198.55-34.69 222.89-34.69 222.89-29.03 204.72-29.03 204.72-20.7 221.55-20.7 221.55-15.04 204.72-15.04 204.72-5.66 222.89-5.66 222.89 0Z" opacity="1" transform="matrix(1,0,0,1,0,0)" fill="#fce44d" class="wordmark-text-0" data-fill-palette-color="primary" id="text-0"></path></svg></g></svg></g></svg></g></svg></g></svg></g><defs></defs></svg><rect width="395.52" height="64.68909786276716" fill="none" stroke="none" visibility="hidden"></rect></g></svg></g></svg>